<svg xmlns="http://www.w3.org/2000/svg" version="1.0" width="503" height="503" viewBox="0 0 5030 5030" preserveAspectRatio="xMidYMid meet" id="svg10">
    <g id="layer101" style="fill:#d51823;stroke:none">
        <path d="M0 2515V0h5030v5030H0z" id="path2"/>
    </g>
    <g id="layer102" style="fill:#fdfafa;stroke:none">
        <path d="M1098 3270c-353-43-561-288-597-704-39-455 180-767 599-852 159-32 371-3 530 73 104 50 204 150 252 253 38 81 53.88 188.54 53.88 188.54L1510 2229l-32-61c-81-152-288-185-422-67-105 92-150 298-112 511 36 197 134 298 291 298 144 0 296.88-106.78 296.88-188.78l-212.8.53.25-311.75H1980l.16 745.08L2447 1805h495l513 1350.16V1765h1160v330l-693.23-.1-.05 305.02 548.28.08v330h-550v530l-908.88-.44L2957 3070l-530.34-.75L2366 3260h-706l-.17-191.88S1629 3094 1599 3123c-121 114-311 170-501 147zm1752-507c1-14-153-538-160-546-6-6-170 546-170 546z" id="path7"/>
    </g>
</svg>

